<svg width="44" height="44" viewBox="0 0 44 44" fill="none" xmlns="http://www.w3.org/2000/svg">
<path d="M22.2 37C15.8753 37 11 32.2565 11 26.0636C11 23.8236 11.3953 22.1106 12.1859 20.793C12.9765 19.6071 13.3718 19.0801 14.0306 18.4213C14.2941 18.2895 14.4259 18.026 14.6894 17.7624L15.0847 17.2354C15.7435 16.5766 15.8753 16.4448 16.5341 15.2589C17.1929 14.073 17.72 11.306 17.72 9.32952C17.72 8.80247 17.9835 8.40717 18.5106 8.14365C18.9059 7.88012 19.4329 8.01188 19.8282 8.27541L20.487 8.80247C21.9364 9.85658 23.7811 11.4378 25.2305 13.6777C26.1529 15.1271 27.0752 17.1036 27.6023 18.6848C27.8658 18.1577 28.1293 17.4989 28.2611 16.7083C28.3929 16.1813 28.7882 15.6542 29.3152 15.5224C29.8423 15.3907 30.5011 15.6542 30.7646 16.1813C31.687 17.7624 31.8187 18.026 32.6093 20.3977C33.3999 22.9012 33.5317 24.4824 33.5317 25.9318C33.3999 31.993 28.3929 37 22.2 37ZM20.0917 11.9648C19.8282 13.6777 19.4329 15.3907 18.7741 16.5766C17.9835 17.8942 17.72 18.2895 17.0612 19.0801L16.6659 19.4754C16.4023 19.7389 16.1388 20.0024 16.007 20.266C15.48 20.9248 15.0847 21.3201 14.4259 22.2424C13.8988 23.1648 13.6353 24.4824 13.6353 26.1953C13.6353 30.8071 17.4564 34.4965 22.2 34.4965C26.9435 34.4965 30.7646 30.6753 30.7646 25.9318C30.7646 24.6142 30.7646 23.4283 29.974 21.3201C29.8423 20.9248 29.7105 20.6612 29.7105 20.3977C29.0517 21.4518 28.2611 22.1106 27.8658 22.3742C27.4705 22.6377 26.9435 22.7695 26.4164 22.5059C26.0211 22.2424 25.6258 21.8471 25.6258 21.3201C25.6258 20.9248 24.5717 17.3671 23.1223 15.1271C22.2 13.8095 21.1458 12.7554 20.0917 11.9648Z" fill="#6F6E7C"/>
</svg>
